<svg xmlns="http://www.w3.org/2000/svg" viewBox="0 0 64 64">
  <defs>
    <linearGradient id="bg" x1="0" y1="0" x2="1" y2="1">
      <stop offset="0%" stop-color="#064e3b" />
      <stop offset="100%" stop-color="#052e26" />
    </linearGradient>
  </defs>
  <rect x="2" y="2" width="60" height="60" rx="14" fill="url(#bg)" />
  <rect x="2" y="2" width="60" height="60" rx="14" fill="none" stroke="#b45309" stroke-width="2" />
  <path d="M45 22c-2.4-3.1-6-4.9-10.6-4.9-8.1 0-14 5.7-14 14.8 0 9 5.6 15.1 14.5 15.1 5.1 0 8.9-2 11.3-5.7v-6.4h-10v5.2h4.2c-1.1 1.4-3.1 2.2-5.3 2.2-4.8 0-8.1-3.4-8.1-8.5 0-5.2 3.2-8.6 7.9-8.6 2.6 0 4.6.9 6 2.7L45 22z" fill="#f59e0b"/>
</svg>
